<svg xmlns="http://www.w3.org/2000/svg" xmlns:xlink="http://www.w3.org/1999/xlink" width="4800" zoomAndPan="magnify" viewBox="0 0 3600 1223.999942" height="1632" preserveAspectRatio="xMidYMid meet" version="1.0"><defs><g/></defs><g fill="#acc930" fill-opacity="1"><g transform="translate(-22.834672, 663.375404)"><g><path d="M 46.6875 -466.875 L 178.75 -466.875 L 178.75 0 L 46.6875 0 Z M 46.6875 -466.875 "/></g></g></g><g fill="#acc930" fill-opacity="1"><g transform="translate(193.262386, 663.375404)"><g><path d="M 359.5 -90.703125 L 162.078125 -90.703125 L 125.390625 0 L -9.34375 0 L 196.75 -466.875 L 326.8125 -466.875 L 533.5625 0 L 396.171875 0 Z M 320.8125 -188.078125 L 260.78125 -337.484375 L 200.75 -188.078125 Z M 320.8125 -188.078125 "/></g></g></g><g fill="#acc930" fill-opacity="1"><g transform="translate(707.4933, 663.375404)"><g><path d="M 520.21875 -466.875 L 320.140625 0 L 190.09375 0 L -9.34375 -466.875 L 133.390625 -466.875 L 260.125 -162.734375 L 389.515625 -466.875 Z M 520.21875 -466.875 "/></g></g></g><g fill="#acc930" fill-opacity="1"><g transform="translate(1208.384893, 663.375404)"><g><path d="M 468.21875 0 L 466.875 -247.453125 L 346.828125 -46.015625 L 288.125 -46.015625 L 168.75 -240.78125 L 168.75 0 L 46.6875 0 L 46.6875 -466.875 L 155.40625 -466.875 L 319.484375 -197.421875 L 479.546875 -466.875 L 588.25 -466.875 L 589.578125 0 Z M 468.21875 0 "/></g></g></g><g fill="#acc930" fill-opacity="1"><g transform="translate(1834.66625, 663.375404)"><g><path d="M 46.6875 -466.875 L 178.75 -466.875 L 178.75 0 L 46.6875 0 Z M 46.6875 -466.875 "/></g></g></g><g fill="#acc930" fill-opacity="1"><g transform="translate(2050.763307, 663.375404)"><g><path d="M 279.453125 9.34375 C 230.546875 9.34375 186.640625 -0.992188 147.734375 -21.671875 C 108.828125 -42.347656 78.253906 -71.140625 56.015625 -108.046875 C 33.785156 -144.953125 22.671875 -186.75 22.671875 -233.4375 C 22.671875 -280.125 33.785156 -321.921875 56.015625 -358.828125 C 78.253906 -395.734375 108.828125 -424.523438 147.734375 -445.203125 C 186.640625 -465.878906 230.546875 -476.21875 279.453125 -476.21875 C 322.140625 -476.21875 360.601562 -468.65625 394.84375 -453.53125 C 429.082031 -438.414062 457.539062 -416.628906 480.21875 -388.171875 L 396.171875 -312.140625 C 365.941406 -348.597656 329.257812 -366.828125 286.125 -366.828125 C 260.78125 -366.828125 238.210938 -361.269531 218.421875 -350.15625 C 198.640625 -339.039062 183.300781 -323.367188 172.40625 -303.140625 C 161.519531 -282.910156 156.078125 -259.675781 156.078125 -233.4375 C 156.078125 -207.207031 161.519531 -183.972656 172.40625 -163.734375 C 183.300781 -143.503906 198.640625 -127.832031 218.421875 -116.71875 C 238.210938 -105.601562 260.78125 -100.046875 286.125 -100.046875 C 329.257812 -100.046875 365.941406 -118.273438 396.171875 -154.734375 L 480.21875 -78.703125 C 457.539062 -50.242188 429.082031 -28.453125 394.84375 -13.328125 C 360.601562 1.785156 322.140625 9.34375 279.453125 9.34375 Z M 279.453125 9.34375 "/></g></g></g><g fill="#acc930" fill-opacity="1"><g transform="translate(2532.989765, 663.375404)"><g/></g></g><g fill="#acc930" fill-opacity="1"><g transform="translate(2717.072321, 663.375404)"><g/></g></g><g fill="#acc930" fill-opacity="1"><g transform="translate(2901.154876, 663.375404)"><g/></g></g><g fill="#acc930" fill-opacity="1"><g transform="translate(3085.24758, 663.375404)"><g><path d="M 490.890625 -466.875 L 490.890625 0 L 382.171875 0 L 176.078125 -248.78125 L 176.078125 0 L 46.6875 0 L 46.6875 -466.875 L 155.40625 -466.875 L 361.5 -218.09375 L 361.5 -466.875 Z M 490.890625 -466.875 "/></g></g></g><g fill="#acc930" fill-opacity="1"><g transform="translate(2385.294929, 1088.754343)"><g><path d="M 267.890625 -73.140625 L 267.890625 0 L 13.984375 0 L 13.984375 -57.765625 L 136.046875 -171.921875 C 147.847656 -183.097656 155.765625 -192.644531 159.796875 -200.5625 C 163.835938 -208.488281 165.859375 -216.488281 165.859375 -224.5625 C 165.859375 -235.125 162.285156 -243.351562 155.140625 -249.25 C 148.003906 -255.15625 137.601562 -258.109375 123.9375 -258.109375 C 111.820312 -258.109375 100.71875 -255.390625 90.625 -249.953125 C 80.53125 -244.523438 72.21875 -236.6875 65.6875 -226.4375 L -2.796875 -264.640625 C 9.941406 -285.753906 27.800781 -302.367188 50.78125 -314.484375 C 73.769531 -326.597656 100.945312 -332.65625 132.3125 -332.65625 C 157.164062 -332.65625 179.140625 -328.617188 198.234375 -320.546875 C 217.335938 -312.472656 232.25 -300.898438 242.96875 -285.828125 C 253.6875 -270.765625 259.046875 -253.296875 259.046875 -233.421875 C 259.046875 -215.710938 255.238281 -199.015625 247.625 -183.328125 C 240.019531 -167.648438 225.34375 -149.867188 203.59375 -129.984375 L 142.09375 -73.140625 Z M 267.890625 -73.140625 "/></g></g></g><g fill="#ff5757" fill-opacity="1"><g transform="translate(2994.564658, 1088.754343)"><g><path d="M 267.890625 -73.140625 L 267.890625 0 L 13.984375 0 L 13.984375 -57.765625 L 136.046875 -171.921875 C 147.847656 -183.097656 155.765625 -192.644531 159.796875 -200.5625 C 163.835938 -208.488281 165.859375 -216.488281 165.859375 -224.5625 C 165.859375 -235.125 162.285156 -243.351562 155.140625 -249.25 C 148.003906 -255.15625 137.601562 -258.109375 123.9375 -258.109375 C 111.820312 -258.109375 100.71875 -255.390625 90.625 -249.953125 C 80.53125 -244.523438 72.21875 -236.6875 65.6875 -226.4375 L -2.796875 -264.640625 C 9.941406 -285.753906 27.800781 -302.367188 50.78125 -314.484375 C 73.769531 -326.597656 100.945312 -332.65625 132.3125 -332.65625 C 157.164062 -332.65625 179.140625 -328.617188 198.234375 -320.546875 C 217.335938 -312.472656 232.25 -300.898438 242.96875 -285.828125 C 253.6875 -270.765625 259.046875 -253.296875 259.046875 -233.421875 C 259.046875 -215.710938 255.238281 -199.015625 247.625 -183.328125 C 240.019531 -167.648438 225.34375 -149.867188 203.59375 -129.984375 L 142.09375 -73.140625 Z M 267.890625 -73.140625 "/></g></g></g><g fill="#ff5757" fill-opacity="1"><g transform="translate(3266.6048, 1088.754343)"><g><path d="M 137.90625 -207.328125 C 183.5625 -207.328125 217.335938 -198.007812 239.234375 -179.375 C 261.140625 -160.738281 272.09375 -135.890625 272.09375 -104.828125 C 272.09375 -84.640625 266.890625 -66.082031 256.484375 -49.15625 C 246.078125 -32.226562 230.234375 -18.71875 208.953125 -8.625 C 187.679688 1.46875 161.359375 6.515625 129.984375 6.515625 C 107.003906 6.515625 84.253906 3.722656 61.734375 -1.859375 C 39.210938 -7.453125 19.878906 -15.375 3.734375 -25.625 L 36.8125 -95.046875 C 49.851562 -86.347656 64.21875 -79.664062 79.90625 -75 C 95.59375 -70.34375 111.351562 -68.015625 127.1875 -68.015625 C 143.03125 -68.015625 155.6875 -71.039062 165.15625 -77.09375 C 174.632812 -83.15625 179.375 -91.625 179.375 -102.5 C 179.375 -113.375 174.710938 -121.601562 165.390625 -127.1875 C 156.078125 -132.78125 139.617188 -135.578125 116.015625 -135.578125 L 27.484375 -135.578125 L 43.796875 -326.140625 L 251.59375 -326.140625 L 251.59375 -254.84375 L 120.203125 -254.84375 L 116.015625 -207.328125 Z M 137.90625 -207.328125 "/></g></g></g><g fill="#5271ff" fill-opacity="1"><g transform="translate(2672.087833, 1088.754343)"><g><path d="M 159.8125 6.515625 C 131.851562 6.515625 107 -0.160156 85.25 -13.515625 C 63.507812 -26.867188 46.503906 -46.359375 34.234375 -71.984375 C 21.972656 -97.609375 15.84375 -127.96875 15.84375 -163.0625 C 15.84375 -198.164062 21.972656 -228.53125 34.234375 -254.15625 C 46.503906 -279.78125 63.507812 -299.269531 85.25 -312.625 C 107 -325.976562 131.851562 -332.65625 159.8125 -332.65625 C 187.445312 -332.65625 212.132812 -325.976562 233.875 -312.625 C 255.625 -299.269531 272.632812 -279.78125 284.90625 -254.15625 C 297.175781 -228.53125 303.3125 -198.164062 303.3125 -163.0625 C 303.3125 -127.96875 297.175781 -97.609375 284.90625 -71.984375 C 272.632812 -46.359375 255.625 -26.867188 233.875 -13.515625 C 212.132812 -0.160156 187.445312 6.515625 159.8125 6.515625 Z M 159.8125 -68.953125 C 175.332031 -68.953125 187.675781 -76.484375 196.84375 -91.546875 C 206.007812 -106.609375 210.59375 -130.445312 210.59375 -163.0625 C 210.59375 -195.675781 206.007812 -219.515625 196.84375 -234.578125 C 187.675781 -249.648438 175.332031 -257.1875 159.8125 -257.1875 C 143.96875 -257.1875 131.460938 -249.648438 122.296875 -234.578125 C 113.140625 -219.515625 108.5625 -195.675781 108.5625 -163.0625 C 108.5625 -130.445312 113.140625 -106.609375 122.296875 -91.546875 C 131.460938 -76.484375 143.96875 -68.953125 159.8125 -68.953125 Z M 159.8125 -68.953125 "/></g></g></g><g fill="#5271ff" fill-opacity="1"><g transform="translate(2603.277811, 655.66693)"><g><path d="M 228.609375 9.328125 C 188.617188 9.328125 153.070312 -0.222656 121.96875 -19.328125 C 90.863281 -38.429688 66.535156 -66.3125 48.984375 -102.96875 C 31.429688 -139.625 22.65625 -183.054688 22.65625 -233.265625 C 22.65625 -283.472656 31.429688 -326.90625 48.984375 -363.5625 C 66.535156 -400.21875 90.863281 -428.097656 121.96875 -447.203125 C 153.070312 -466.316406 188.617188 -475.875 228.609375 -475.875 C 268.148438 -475.875 303.472656 -466.316406 334.578125 -447.203125 C 365.679688 -428.097656 390.003906 -400.21875 407.546875 -363.5625 C 425.097656 -326.90625 433.875 -283.472656 433.875 -233.265625 C 433.875 -183.054688 425.097656 -139.625 407.546875 -102.96875 C 390.003906 -66.3125 365.679688 -38.429688 334.578125 -19.328125 C 303.472656 -0.222656 268.148438 9.328125 228.609375 9.328125 Z M 228.609375 -98.640625 C 250.816406 -98.640625 268.472656 -109.410156 281.578125 -130.953125 C 294.691406 -152.503906 301.25 -186.609375 301.25 -233.265625 C 301.25 -279.921875 294.691406 -314.023438 281.578125 -335.578125 C 268.472656 -357.128906 250.816406 -367.90625 228.609375 -367.90625 C 205.941406 -367.90625 188.054688 -357.128906 174.953125 -335.578125 C 161.847656 -314.023438 155.296875 -279.921875 155.296875 -233.265625 C 155.296875 -186.609375 161.847656 -152.503906 174.953125 -130.953125 C 188.054688 -109.410156 205.941406 -98.640625 228.609375 -98.640625 Z M 228.609375 -98.640625 "/></g></g></g></svg>